<?xml version="1.0" standalone="no"?>
<!DOCTYPE svg PUBLIC "-//W3C//DTD SVG 20010904//EN"
 "http://www.w3.org/TR/2001/REC-SVG-20010904/DTD/svg10.dtd">
<svg version="1.0" xmlns="http://www.w3.org/2000/svg"
 width="1200.000000pt" height="1200.000000pt" viewBox="0 0 1200.000000 1200.000000"
 preserveAspectRatio="xMidYMid meet">

<g transform="translate(0.000000,1200.000000) scale(0.100000,-0.100000)"
fill="#000000" stroke="none">
<path d="M4790 6000 c0 -1543 0 -1550 20 -1550 20 0 20 7 20 1550 0 1543 0
1550 -20 1550 -20 0 -20 -7 -20 -1550z"/>
<path d="M2470 7095 c-206 -52 -359 -193 -426 -392 -22 -66 -26 -91 -22 -164
3 -70 9 -94 31 -131 82 -141 267 -208 572 -208 187 0 306 20 415 71 77 35 151
104 176 165 24 58 28 151 10 224 -48 191 -188 345 -376 415 -64 24 -93 28
-200 31 -84 2 -143 -1 -180 -11z m295 -100 c94 -24 163 -63 230 -129 76 -75
120 -162 137 -267 11 -73 10 -79 -13 -125 -62 -125 -250 -183 -554 -171 -223
9 -355 55 -416 146 -29 44 -31 50 -27 126 6 112 45 194 135 285 74 73 142 113
231 134 77 19 205 19 277 1z"/>
<path d="M2295 6633 c-76 -40 -96 -89 -50 -119 24 -16 27 -15 63 10 48 33 79
33 122 1 39 -29 53 -31 74 -9 24 23 19 57 -11 86 -52 49 -138 63 -198 31z"/>
<path d="M2798 6630 c-68 -36 -87 -87 -43 -116 24 -16 27 -15 65 10 49 33 77
33 120 1 39 -29 53 -31 74 -9 24 23 19 57 -11 86 -54 52 -138 63 -205 28z"/>
<path d="M6102 5993 l3 -858 510 0 510 0 3 92 3 93 -408 2 -408 3 -3 297 -2
298 372 2 373 3 3 92 3 93 -373 2 -373 3 -3 272 -2 273 402 2 403 3 0 90 0 90
-508 3 -507 2 2 -857z"/>
<path d="M9435 6389 c-119 -18 -239 -73 -320 -146 -73 -66 -130 -166 -161
-283 -24 -90 -24 -318 0 -415 56 -227 201 -371 424 -421 208 -46 527 22 671
144 l32 27 -36 68 c-20 37 -41 67 -47 67 -5 0 -22 -8 -36 -19 -131 -92 -372
-144 -513 -111 -122 28 -218 103 -265 204 -25 54 -53 191 -41 202 3 4 219 9
478 12 l472 5 -6 126 c-7 143 -21 205 -72 308 -56 113 -145 183 -277 217 -75
19 -228 27 -303 15z m246 -183 c114 -40 200 -150 211 -272 l3 -39 -370 0 -370
0 3 40 c4 53 34 118 77 171 42 51 134 99 215 113 67 12 176 6 231 -13z"/>
<path d="M7420 6357 c0 -7 95 -233 211 -502 116 -270 233 -539 259 -600 l47
-110 114 -3 114 -3 99 233 c54 128 140 332 191 453 51 121 122 291 159 377 36
87 66 160 66 163 0 3 -50 4 -111 3 l-111 -3 -87 -225 c-48 -124 -133 -346
-190 -493 -60 -152 -109 -266 -115 -264 -11 4 -73 146 -286 662 -68 165 -128
306 -133 313 -13 17 -227 17 -227 -1z"/>
<path d="M1946 6138 c-13 -20 -13 -39 4 -168 91 -681 290 -1145 544 -1270 59
-30 71 -32 143 -28 101 4 157 32 243 118 164 164 288 457 374 882 19 95 42
235 51 312 17 138 17 139 -4 159 -19 20 -24 20 -78 9 -202 -45 -490 -64 -765
-51 -167 7 -347 29 -418 49 -54 15 -78 12 -94 -12z m474 -139 c247 -16 461 -5
748 37 l44 7 -7 -49 c-56 -413 -148 -748 -265 -959 -58 -105 -149 -208 -212
-239 -203 -101 -394 97 -547 567 -43 133 -100 399 -123 577 l-14 105 100 -17
c56 -9 180 -22 276 -29z"/>
<path d="M2236 5874 c-31 -30 -9 -84 34 -84 24 0 50 26 50 49 0 22 -30 51 -53
51 -8 0 -23 -7 -31 -16z"/>
<path d="M2440 5870 c-24 -24 -24 -29 -4 -58 17 -24 53 -29 72 -10 19 19 15
66 -7 78 -28 14 -38 13 -61 -10z"/>
<path d="M2646 5874 c-19 -18 -21 -55 -4 -72 17 -17 54 -15 72 4 21 21 20 40
-4 64 -24 24 -43 25 -64 4z"/>
<path d="M1765 5973 c-19 -18 -18 -21 16 -233 50 -298 131 -568 238 -785 39
-77 79 -150 91 -162 29 -32 67 -30 82 3 11 23 9 32 -16 72 -96 163 -198 430
-250 657 -21 93 -48 244 -72 408 -8 54 -55 75 -89 40z"/>
<path d="M3416 5968 c-7 -13 -19 -61 -25 -108 -49 -355 -164 -733 -286 -942
-58 -100 -58 -148 0 -148 32 0 49 24 124 172 107 210 195 506 251 833 23 138
25 186 8 203 -19 19 -56 14 -72 -10z"/>
</g>
</svg>
